<?xml version="1.0" encoding="utf-8"?>
<!-- Generator: Adobe Illustrator 17.0.0, SVG Export Plug-In . SVG Version: 6.00 Build 0)  -->
<!DOCTYPE svg PUBLIC "-//W3C//DTD SVG 1.1//EN" "http://www.w3.org/Graphics/SVG/1.1/DTD/svg11.dtd">
<svg version="1.1" id="Capa_1" xmlns="http://www.w3.org/2000/svg" xmlns:xlink="http://www.w3.org/1999/xlink" x="0px" y="0px"
	 width="841.9px" height="216.4px" viewBox="0 0 841.9 216.4" enable-background="new 0 0 841.9 216.4" xml:space="preserve">
<g>
	<text transform="matrix(1 0 0 1 614.0986 193.3918)" fill="#808184" font-family="'Poppins-Light'" font-size="22.5214">By Alex Martínez</text>
	<g>
		<path fill="#393939" d="M676.9,159.8V51.6h2.7v108.2H676.9z"/>
		<path fill="#393939" d="M742.2,51.6c30,0,54.2,24.1,54.2,54.1s-24.2,54.1-54.2,54.1s-54.1-24.1-54.1-54.1S712.2,51.6,742.2,51.6z
			 M742.2,157.1c28.6,0,51.5-22.8,51.5-51.4c0-28.6-22.9-51.4-51.5-51.4c-28.6,0-51.4,22.8-51.4,51.4
			C690.8,134.3,713.6,157.1,742.2,157.1z"/>
		<g>
			<path fill="#393939" d="M388.3,159.8l50.5-108.2h3.2l50.5,108.2h-3.2L473.1,125h-65.5l-16.2,34.8H388.3z M409,122.2h62.6
				l-31.3-67.2L409,122.2z"/>
			<path fill="#393939" d="M535.4,101.7h54.4v4c0,29.9-24.5,54.1-54.4,54.1c-29.9,0-54.1-24.2-54.1-54.1s24.2-54.1,54.1-54.1
				c14.9,0,28.3,5.9,38.1,15.6l-2,1.9c-9.2-9.1-21.9-14.7-36.1-14.7c-28.4,0-51.4,22.9-51.4,51.4s22.9,51.4,51.4,51.4
				c28.4,0,51.4-23.7,51.4-51.4v-1h-51.4V101.7z"/>
			<path fill="#393939" d="M599.8,157.1h64.8v2.7h-67.5V51.6h2.7V157.1z"/>
			<polygon fill="#393939" points="318.9,51.5 318.9,51.6 293.2,51.6 293.2,102.7 242,51.6 230.4,51.6 230.4,136.6 186.3,136.6 
				186.3,116.7 220.6,116.7 220.6,92.7 186.3,92.7 186.3,75.1 225.1,75.1 225.1,51.6 214.5,51.6 214.5,51.6 160.6,51.6 141.4,51.6 
				132.3,51.6 103.7,113.2 75.3,51.6 46.8,51.6 97.3,159.9 110.2,159.9 149.7,75 157.9,75 157.9,159.8 230.4,159.8 234.7,159.8 
				258.8,159.8 258.8,108.6 309.9,159.8 321.6,159.8 321.6,79.8 354.2,79.8 354.2,159.8 382.6,159.8 382.6,79.8 411.3,79.8 
				411.3,51.5 			"/>
		</g>
	</g>
</g>
</svg>
